# xmcd
#
# Track frame offsets:
#	150
#	16989
#	32207
#	47970
#	64529
#	79369
#	95606
#	112247
#	129297
#	147623
#	166274
#	182590
#	199029
#	215160
#	230312
#
# Disc length: 3287 seconds
#
# Revision: 0
# Processed by: cddbd v1.5.2PL0 Copyright (c) Steve Scherf et al.
# Submitted via: audiograbber 1.83.01
#
DISCID=da0cd50f
DTITLE=DJ Ötzi and Bellamy Brothers - Simply the Best
DYEAR=2012
DGENRE=Country
TTITLE0=Hotel Engel
TTITLE1=Like a Star
TTITLE2=Crossfire
TTITLE3=Hey Baby
TTITLE4=Let Your Love Flow
TTITLE5=I Need More of You
TTITLE6=Feelin' the Feelin'
TTITLE7=Forget About Me
TTITLE8=You've Lost That Lovin' Feeling
TTITLE9=Islands in the Stream
TTITLE10=Sweet Caroline
TTITLE11=If I Said You Had
TTITLE12=The Gambler
TTITLE13=When You Walk in the Room
TTITLE14=I Can Help
EXTD=
EXTT0=
EXTT1=
EXTT2=
EXTT3=
EXTT4=
EXTT5=
EXTT6=
EXTT7=
EXTT8=
EXTT9=
EXTT10=
EXTT11=
EXTT12=
EXTT13=
EXTT14=
PLAYORDER=
